# xmcd
#
# Track frame offsets: 
#        150
#        13822
#        26347
#        41572
#        51295
#        61949
#        74733
#        87475
#        99264
#        111026
#        124872
#        135913
#        143899
#        149493
#        159102
#        169708
#        181410
#        194567
#        208359
#        219222
#        232111
#        241652
#        258573
#        275509
#        289099
#        299523
#        318333
#        324289
#        336278
#
# Disc length: 4622 seconds
#
# Revision: 1
# Processed by: cddbd v1.5.2PL0 Copyright (c) Steve Scherf et al.
# Submitted via: ExactAudioCopy v1.0b3
#
DISCID=bc120c1d
DTITLE=Various Artist - Dust Bowl Blues [Disc 2]
DYEAR=2011
DGENRE=Blues
TTITLE0=Weavers, The - Wimoweh
TTITLE1=Weavers, The - Bring Me Li'l Water, Sylvia
TTITLE2=Weavers, The - So Long (It's Been Good To Know You)
TTITLE3=Seeger, Peggy - The Wedding Dress Song
TTITLE4=Seeger, Peggy - The Butcher's Boy
TTITLE5=Terry, Sonny and Brownie McGhee - Goin' Down Slow
TTITLE6=Terry, Sonny and Brownie McGhee - Airplane Blues
TTITLE7=Terry, Sonny and Brownie McGhee - Dealing With The Devil
TTITLE8=Terry, Sonny and Brownie McGhee - Crow Jane Blues
TTITLE9=Houston, Cisco - Saint James Infirmary
TTITLE10=Houston, Cisco - Diamond Joe
TTITLE11=Houston, Cisco - The Great American Burn
TTITLE12=Houston, Cisco - Mysteries Of A Hobo's Life
TTITLE13=Almanac Singers - Which Side Are You On
TTITLE14=Almanac Singers - Union Train
TTITLE15=Almanac Singers - Get Thee Behind Me Satan
TTITLE16=Almanac Singers - Solidarity Forever
TTITLE17=Kingston Trio, The - Tom Dooley
TTITLE18=Kingston Trio, The - Hard, Ain't It Hard
TTITLE19=Kingston Trio, The - The Tijuana Jail
TTITLE20=Kingston Trio, The - Early In The Morning
TTITLE21=Belafonte, Harry - Mark Twain
TTITLE22=Belafonte, Harry - Shenandoah
TTITLE23=Belafonte, Harry - Delia
TTITLE24=Belafonte, Harry - Mo Mary
TTITLE25=Ives, Burl - Jesse James
TTITLE26=Ives, Burl - Poor Wayfaring Stranger
TTITLE27=Ives, Burl - Big Rock Candy Mountain
TTITLE28=Ives, Burl - Cowboy's Lament
EXTD=
EXTT0=
EXTT1=
EXTT2=
EXTT3=
EXTT4=
EXTT5=
EXTT6=
EXTT7=
EXTT8=
EXTT9=
EXTT10=
EXTT11=
EXTT12=
EXTT13=
EXTT14=
EXTT15=
EXTT16=
EXTT17=
EXTT18=
EXTT19=
EXTT20=
EXTT21=
EXTT22=
EXTT23=
EXTT24=
EXTT25=
EXTT26=
EXTT27=
EXTT28=
PLAYORDER=
